<svg preserveAspectRatio="none" overflow="visible" style="display: block;" width="1440" height="120.419" viewBox="0 0 1440 120.419" fill="none" xmlns="http://www.w3.org/2000/svg">
<g id="Group 47">
<rect id="Rectangle 74" y="20.4189" width="1440" height="100" fill="#FF2D78"/>
<path id="Vector" d="M34.1389 0.217753C30.5091 0.375573 29.4221 1.87381 25.4993 2.00588C22.3138 2.11295 20.7957 1.62759 17.7123 1.18199C16.9353 1.15774 16.5516 1.64039 15.7405 1.53769C13.4965 1.25292 10.6758 0.314132 8.53769 0.0109908C7.48467 -0.138246 0.988901 1.27295 0.289415 1.77788C-0.122715 2.98578 0.123068 7.34691 0.0947104 8.83762C0.0209807 12.9607 0.270527 17.3144 0.000185181 21.4185H333.637L333.644 6.14895C330.211 5.85319 324.989 5.34645 321.634 5.39027C315.604 1.77487 314.219 5.76811 308.206 3.25398C307.607 3.0037 303.044 3.00084 302.098 2.74408C298.178 2.49394 292.823 0.300276 289.451 2.33055C288.638 2.32423 286.959 2.28989 286.211 2.41232C284.248 2.73384 282.789 3.82713 280.723 4.01869C274.534 4.59244 267.776 4.14729 261.802 5.76374C261.171 5.93436 260.049 6.62648 259.402 6.8977C257.109 6.89017 253.342 7.04106 251.251 6.68943C249.351 6.36987 246.754 4.21852 244.608 4.11431C241.238 3.97065 237.815 5.46798 234.46 5.69251C231.633 5.8815 228.704 5.82172 225.853 5.99068C220.766 6.29202 218.14 3.42837 213.041 4.13133C212.901 4.15091 212.761 4.17169 212.62 4.19352C212.454 4.21942 212.288 4.24638 212.121 4.27439C211.94 4.30511 211.759 4.33673 211.578 4.36941C210.168 3.87653 209.207 3.60667 207.735 3.23546C207.396 2.92976 206.926 2.47768 206.578 2.19924C204.446 1.87321 200.207 1.14796 198.419 2.15632C197.844 2.48099 197.706 2.96906 197.491 3.49237C193.364 4.5322 191.985 6.17034 187.866 6.56655C185.574 6.78686 183.544 5.95469 181.342 5.9181C177.047 5.84672 172.05 6.52302 167.824 6.33268C165.608 6.23298 161.663 5.27146 159.203 5.02524C156.277 4.73234 153.623 4.89784 150.772 4.68942C148.823 4.54666 146.287 4.08013 144.295 3.84249C143.276 3.72112 142.119 3.41918 141.036 3.31964C139.419 3.17131 137.222 4.00935 135.721 3.53273C135.347 3.41376 134.175 2.19351 133.925 2.11897C132.103 1.57428 128.386 0.865748 126.551 1.36375C124.946 1.79942 123.749 2.43642 122.214 2.76877C120.231 3.19856 118.563 3.03984 116.68 3.6267C114.998 3.25504 113.661 3.23922 112.264 2.90566C110.922 2.58535 109.375 1.38168 107.545 1.34011C104.757 1.26692 101.915 1.48137 99.1477 1.73587C97.8735 1.85303 95.9263 2.45329 94.7088 2.39471C91.2113 2.22634 87.9048 1.95001 84.3696 2.0994C82.8099 2.16536 80.7776 1.71027 79.1783 1.73978C76.6223 1.6672 74.1949 2.58972 71.707 2.73986C69.9734 2.84437 68.0999 2.26625 66.4533 2.17062C64.162 2.03765 61.6004 2.17349 59.2959 2.16249C58.0897 2.15677 56.3693 2.81892 55.5772 2.84347C53.9968 2.89226 52.0212 2.46142 50.3235 2.52723C48.9397 2.58084 46.1739 3.37852 44.9753 3.27266C41.4873 2.96409 37.0824 1.75469 34.1389 0.217753Z" fill="#FF2D78"/>
<path id="Vector_2" d="M633.148 0.217753C636.778 0.375573 637.865 1.87381 641.788 2.00588C644.973 2.11295 646.491 1.62759 649.575 1.18199C650.352 1.15774 650.736 1.64039 651.547 1.53769C653.791 1.25292 656.611 0.314132 658.749 0.0109908C659.802 -0.138246 666.298 1.27295 666.998 1.77788C667.41 2.98578 667.164 7.34691 667.192 8.83762C667.266 12.9607 667.017 17.3144 667.287 21.4185H333.65L333.644 6.14895C337.076 5.85319 342.298 5.34645 345.653 5.39027C351.683 1.77487 353.068 5.76811 359.081 3.25398C359.68 3.0037 364.243 3.00084 365.189 2.74408C369.109 2.49394 374.464 0.300276 377.837 2.33055C378.649 2.32423 380.328 2.28989 381.076 2.41232C383.039 2.73384 384.498 3.82713 386.564 4.01869C392.753 4.59244 399.511 4.14729 405.485 5.76374C406.116 5.93436 407.238 6.62648 407.885 6.8977C410.178 6.89017 413.946 7.04106 416.036 6.68943C417.936 6.36987 420.533 4.21852 422.679 4.11431C426.049 3.97065 429.472 5.46798 432.828 5.69251C435.654 5.8815 438.583 5.82172 441.434 5.99068C446.522 6.29202 449.147 3.42837 454.246 4.13133C454.386 4.15091 454.527 4.17169 454.667 4.19352C454.833 4.21942 455 4.24638 455.166 4.27439C455.347 4.30511 455.528 4.33673 455.709 4.36941C457.12 3.87653 458.08 3.60667 459.552 3.23546C459.891 2.92976 460.362 2.47768 460.709 2.19924C462.841 1.87321 467.08 1.14796 468.868 2.15632C469.443 2.48099 469.581 2.96906 469.796 3.49237C473.923 4.5322 475.302 6.17034 479.421 6.56655C481.713 6.78686 483.743 5.95469 485.945 5.9181C490.24 5.84672 495.237 6.52302 499.463 6.33268C501.679 6.23298 505.624 5.27146 508.084 5.02524C511.01 4.73234 513.665 4.89784 516.515 4.68942C518.465 4.54666 521 4.08013 522.992 3.84249C524.011 3.72112 525.168 3.41918 526.252 3.31964C527.868 3.17131 530.065 4.00935 531.566 3.53273C531.94 3.41376 533.112 2.19351 533.362 2.11897C535.184 1.57428 538.901 0.865748 540.737 1.36375C542.342 1.79942 543.538 2.43642 545.073 2.76877C547.057 3.19856 548.724 3.03984 550.607 3.6267C552.289 3.25504 553.626 3.23922 555.023 2.90566C556.365 2.58535 557.912 1.38168 559.742 1.34011C562.53 1.26692 565.372 1.48137 568.139 1.73587C569.414 1.85303 571.361 2.45329 572.578 2.39471C576.076 2.22634 579.382 1.95001 582.918 2.0994C584.477 2.16536 586.509 1.71027 588.109 1.73978C590.665 1.6672 593.092 2.58972 595.58 2.73986C597.314 2.84437 599.187 2.26625 600.834 2.17062C603.125 2.03765 605.687 2.17349 607.991 2.16249C609.197 2.15677 610.918 2.81892 611.71 2.84347C613.29 2.89226 615.266 2.46142 616.964 2.52723C618.347 2.58084 621.113 3.37852 622.312 3.27266C625.8 2.96409 630.205 1.75469 633.148 0.217753Z" fill="#FF2D78"/>
<path id="Vector_3" d="M700.426 0.217753C696.796 0.375573 695.709 1.87381 691.786 2.00588C688.6 2.11295 687.082 1.62759 683.999 1.18199C683.222 1.15774 682.838 1.64039 682.027 1.53769C679.783 1.25292 676.962 0.314132 674.824 0.0109908C673.771 -0.138246 667.276 1.27295 666.576 1.77788C666.164 2.98578 666.41 7.34691 666.381 8.83762C666.308 12.9607 666.557 17.3144 666.287 21.4185H999.924L999.93 6.14895C996.498 5.85319 991.275 5.34645 987.921 5.39027C981.891 1.77487 980.505 5.76811 974.492 3.25398C973.894 3.0037 969.33 3.00084 968.384 2.74408C964.465 2.49394 959.109 0.300276 955.737 2.33055C954.924 2.32423 953.245 2.28989 952.497 2.41232C950.535 2.73384 949.075 3.82713 947.009 4.01869C940.821 4.59244 934.063 4.14729 928.089 5.76374C927.458 5.93436 926.335 6.62648 925.689 6.8977C923.396 6.89017 919.628 7.04106 917.537 6.68943C915.638 6.36987 913.041 4.21852 910.895 4.11431C907.524 3.97065 904.101 5.46798 900.746 5.69251C897.92 5.8815 894.99 5.82172 892.139 5.99068C887.052 6.29202 884.427 3.42837 879.328 4.13133C879.187 4.15091 879.047 4.17169 878.907 4.19352C878.741 4.21942 878.574 4.24638 878.408 4.27439C878.227 4.30511 878.046 4.33673 877.865 4.36941C876.454 3.87653 875.494 3.60667 874.021 3.23546C873.683 2.92976 873.212 2.47768 872.865 2.19924C870.733 1.87321 866.494 1.14796 864.706 2.15632C864.13 2.48099 863.993 2.96906 863.778 3.49237C859.651 4.5322 858.272 6.17034 854.153 6.56655C851.861 6.78686 849.831 5.95469 847.629 5.9181C843.333 5.84672 838.336 6.52302 834.111 6.33268C831.895 6.23298 827.95 5.27146 825.49 5.02524C822.563 4.73234 819.909 4.89784 817.058 4.68942C815.109 4.54666 812.574 4.08013 810.581 3.84249C809.562 3.72112 808.405 3.41918 807.322 3.31964C805.706 3.17131 803.509 4.00935 802.008 3.53273C801.634 3.41376 800.462 2.19351 800.212 2.11897C798.39 1.57428 794.673 0.865748 792.837 1.36375C791.232 1.79942 790.035 2.43642 788.5 2.76877C786.517 3.19856 784.85 3.03984 782.967 3.6267C781.284 3.25504 779.948 3.23922 778.551 2.90566C777.208 2.58535 775.662 1.38168 773.832 1.34011C771.043 1.26692 768.202 1.48137 765.434 1.73587C764.16 1.85303 762.213 2.45329 760.995 2.39471C757.498 2.22634 754.191 1.95001 750.656 2.0994C749.097 2.16536 747.064 1.71027 745.465 1.73978C742.909 1.6672 740.482 2.58972 737.994 2.73986C736.26 2.84437 734.387 2.26625 732.74 2.17062C730.449 2.03765 727.887 2.17349 725.582 2.16249C724.376 2.15677 722.656 2.81892 721.864 2.84347C720.283 2.89226 718.308 2.46142 716.61 2.52723C715.226 2.58084 712.46 3.37852 711.262 3.27266C707.774 2.96409 703.369 1.75469 700.426 0.217753Z" fill="#FF2D78"/>
<path id="Vector_4" d="M1298.43 0.217753C1302.06 0.375573 1303.15 1.87381 1307.07 2.00588C1310.26 2.11295 1311.78 1.62759 1314.86 1.18199C1315.64 1.15774 1316.02 1.64039 1316.83 1.53769C1319.08 1.25292 1321.9 0.314132 1324.04 0.0109908C1325.09 -0.138246 1331.58 1.27295 1332.28 1.77788C1332.7 2.98578 1332.45 7.34691 1332.48 8.83762C1332.55 12.9607 1332.3 17.3144 1332.57 21.4185H998.936L998.93 6.14895C1002.36 5.85319 1007.58 5.34645 1010.94 5.39027C1016.97 1.77487 1018.35 5.76811 1024.37 3.25398C1024.97 3.0037 1029.53 3.00084 1030.48 2.74408C1034.4 2.49394 1039.75 0.300276 1043.12 2.33055C1043.94 2.32423 1045.61 2.28989 1046.36 2.41232C1048.33 2.73384 1049.79 3.82713 1051.85 4.01869C1058.04 4.59244 1064.8 4.14729 1070.77 5.76374C1071.4 5.93436 1072.52 6.62648 1073.17 6.8977C1075.46 6.89017 1079.23 7.04106 1081.32 6.68943C1083.22 6.36987 1085.82 4.21852 1087.97 4.11431C1091.34 3.97065 1094.76 5.46798 1098.11 5.69251C1100.94 5.8815 1103.87 5.82172 1106.72 5.99068C1111.81 6.29202 1114.43 3.42837 1119.53 4.13133C1119.67 4.15091 1119.81 4.17169 1119.95 4.19352C1120.12 4.21942 1120.29 4.24638 1120.45 4.27439C1120.63 4.30511 1120.81 4.33673 1121 4.36941C1122.41 3.87653 1123.37 3.60667 1124.84 3.23546C1125.18 2.92976 1125.65 2.47768 1126 2.19924C1128.13 1.87321 1132.37 1.14796 1134.15 2.15632C1134.73 2.48099 1134.87 2.96906 1135.08 3.49237C1139.21 4.5322 1140.59 6.17034 1144.71 6.56655C1147 6.78686 1149.03 5.95469 1151.23 5.9181C1155.53 5.84672 1160.52 6.52302 1164.75 6.33268C1166.97 6.23298 1170.91 5.27146 1173.37 5.02524C1176.3 4.73234 1178.95 4.89784 1181.8 4.68942C1183.75 4.54666 1186.29 4.08013 1188.28 3.84249C1189.3 3.72112 1190.45 3.41918 1191.54 3.31964C1193.15 3.17131 1195.35 4.00935 1196.85 3.53273C1197.23 3.41376 1198.4 2.19351 1198.65 2.11897C1200.47 1.57428 1204.19 0.865748 1206.02 1.36375C1207.63 1.79942 1208.82 2.43642 1210.36 2.76877C1212.34 3.19856 1214.01 3.03984 1215.89 3.6267C1217.58 3.25504 1218.91 3.23922 1220.31 2.90566C1221.65 2.58535 1223.2 1.38168 1225.03 1.34011C1227.82 1.26692 1230.66 1.48137 1233.43 1.73587C1234.7 1.85303 1236.65 2.45329 1237.86 2.39471C1241.36 2.22634 1244.67 1.95001 1248.2 2.0994C1249.76 2.16536 1251.8 1.71027 1253.4 1.73978C1255.95 1.6672 1258.38 2.58972 1260.87 2.73986C1262.6 2.84437 1264.47 2.26625 1266.12 2.17062C1268.41 2.03765 1270.97 2.17349 1273.28 2.16249C1274.48 2.15677 1276.2 2.81892 1277 2.84347C1278.58 2.89226 1280.55 2.46142 1282.25 2.52723C1283.63 2.58084 1286.4 3.37852 1287.6 3.27266C1291.09 2.96409 1295.49 1.75469 1298.43 0.217753Z" fill="#FF2D78"/>
<path id="Vector_5" d="M1342.67 0.217753C1341.49 0.375573 1341.13 1.87381 1339.86 2.00588C1338.82 2.11295 1338.33 1.62759 1337.33 1.18199C1337.08 1.15774 1336.95 1.64039 1336.69 1.53769C1335.96 1.25292 1335.04 0.314132 1334.35 0.0109908C1334.01 -0.138246 1331.89 1.27295 1331.67 1.77788C1331.53 2.98578 1331.61 7.34691 1331.6 8.83762C1331.58 12.9607 1331.66 17.3144 1331.57 21.4185H1440L1440 6.14895C1438.88 5.85319 1437.19 5.34645 1436.1 5.39027C1434.14 1.77487 1433.69 5.76811 1431.73 3.25398C1431.54 3.0037 1430.06 3.00084 1429.75 2.74408C1428.47 2.49394 1426.73 0.300276 1425.64 2.33055C1425.37 2.32423 1424.83 2.28989 1424.59 2.41232C1423.95 2.73384 1423.47 3.82713 1422.8 4.01869C1420.79 4.59244 1418.59 4.14729 1416.65 5.76374C1416.45 5.93436 1416.08 6.62648 1415.87 6.8977C1415.13 6.89017 1413.9 7.04106 1413.22 6.68943C1412.61 6.36987 1411.76 4.21852 1411.07 4.11431C1409.97 3.97065 1408.86 5.46798 1407.77 5.69251C1406.85 5.8815 1405.9 5.82172 1404.97 5.99068C1403.32 6.29202 1402.46 3.42837 1400.81 4.13133C1400.76 4.15091 1400.72 4.17169 1400.67 4.19352C1400.62 4.21942 1400.56 4.24638 1400.51 4.27439C1400.45 4.30511 1400.39 4.33673 1400.33 4.36941C1399.87 3.87653 1399.56 3.60667 1399.08 3.23546C1398.97 2.92976 1398.82 2.47768 1398.71 2.19924C1398.01 1.87321 1396.64 1.14796 1396.06 2.15632C1395.87 2.48099 1395.82 2.96906 1395.75 3.49237C1394.41 4.5322 1393.96 6.17034 1392.63 6.56655C1391.88 6.78686 1391.22 5.95469 1390.51 5.9181C1389.11 5.84672 1387.49 6.52302 1386.11 6.33268C1385.39 6.23298 1384.11 5.27146 1383.31 5.02524C1382.36 4.73234 1381.5 4.89784 1380.57 4.68942C1379.94 4.54666 1379.11 4.08013 1378.47 3.84249C1378.13 3.72112 1377.76 3.41918 1377.41 3.31964C1376.88 3.17131 1376.17 4.00935 1375.68 3.53273C1375.56 3.41376 1375.18 2.19351 1375.1 2.11897C1374.5 1.57428 1373.3 0.865748 1372.7 1.36375C1372.18 1.79942 1371.79 2.43642 1371.29 2.76877C1370.65 3.19856 1370.1 3.03984 1369.49 3.6267C1368.95 3.25504 1368.51 3.23922 1368.06 2.90566C1367.62 2.58535 1367.12 1.38168 1366.52 1.34011C1365.62 1.26692 1364.69 1.48137 1363.79 1.73587C1363.38 1.85303 1362.75 2.45329 1362.35 2.39471C1361.21 2.22634 1360.14 1.95001 1358.99 2.0994C1358.48 2.16536 1357.82 1.71027 1357.3 1.73978C1356.47 1.6672 1355.69 2.58972 1354.88 2.73986C1354.31 2.84437 1353.7 2.26625 1353.17 2.17062C1352.42 2.03765 1351.59 2.17349 1350.84 2.16249C1350.45 2.15677 1349.89 2.81892 1349.63 2.84347C1349.12 2.89226 1348.48 2.46142 1347.93 2.52723C1347.48 2.58084 1346.58 3.37852 1346.19 3.27266C1345.06 2.96409 1343.62 1.75469 1342.67 0.217753Z" fill="#FF2D78"/>
</g>
</svg>
