<svg preserveAspectRatio="none" overflow="visible" style="display: block;" width="15.9987" height="15.9987" viewBox="0 0 15.9987 15.9987" fill="none" xmlns="http://www.w3.org/2000/svg">
<g id="ArrowIcon">
<path id="Vector" d="M12.4995 3.99996V10.4994C12.4995 10.6321 12.4469 10.7592 12.3531 10.8529C12.2593 10.9468 12.1322 10.9994 11.9996 10.9994C11.867 10.9994 11.7399 10.9468 11.6461 10.8529C11.5523 10.7592 11.4996 10.6321 11.4996 10.4994V5.20673L4.35396 12.353C4.26015 12.4469 4.13291 12.4995 4.00024 12.4995C3.86757 12.4995 3.74033 12.4469 3.64652 12.353C3.55271 12.2592 3.5 12.132 3.5 11.9993C3.5 11.8666 3.55271 11.7394 3.64652 11.6456L10.7928 4.49992H5.50012C5.36752 4.49992 5.24035 4.44724 5.14659 4.35348C5.05283 4.25972 5.00016 4.13256 5.00016 3.99996C5.00016 3.86736 5.05283 3.7402 5.14659 3.64644C5.24035 3.55268 5.36752 3.5 5.50012 3.5H11.9996C12.1322 3.5 12.2593 3.55268 12.3531 3.64644C12.4469 3.7402 12.4995 3.86736 12.4995 3.99996Z" fill="white"/>
</g>
</svg>
